<svg width="24" height="24" viewBox="0 0 24 24" fill="none" xmlns="http://www.w3.org/2000/svg">
<g id="Icon">
<g id="Icon shape">
<path d="M12.75 18V16.5H11.25V18H12.75Z" fill="white"/>
<path d="M9 9.75C9 8.0925 10.3425 6.75 12 6.75C13.6575 6.75 15 8.0925 15 9.75C15 10.7122 14.4075 11.23 13.8306 11.7342C13.2833 12.2124 12.75 12.6785 12.75 13.5V14.9939H11.25V13.5C11.25 12.134 11.9566 11.5924 12.5778 11.1163C13.0652 10.7427 13.5 10.4094 13.5 9.75C13.5 8.925 12.825 8.25 12 8.25C11.175 8.25 10.5 8.925 10.5 9.75H9Z" fill="white"/>
<path fill-rule="evenodd" clip-rule="evenodd" d="M12 1.5C6.225 1.5 1.5 6.225 1.5 12C1.5 17.775 6.225 22.5 12 22.5C17.775 22.5 22.5 17.775 22.5 12C22.5 6.225 17.775 1.5 12 1.5ZM12 19.5C7.875 19.5 4.5 16.125 4.5 12C4.5 7.875 7.875 4.5 12 4.5C16.125 4.5 19.5 7.875 19.5 12C19.5 16.125 16.125 19.5 12 19.5Z" fill="white"/>
</g>
</g>
</svg>
