<svg width="70" height="70" viewBox="0 0 70 70" fill="none" xmlns="http://www.w3.org/2000/svg">
<path d="M35 0C42.4083 0 48.9275 2.59544 54.5566 7.78711C60.1858 12.9788 63 19.9502 63 28.7002C63 30.738 62.7154 32.8376 62.1494 35H7.85059C7.28463 32.8376 7.00002 30.738 7 28.7002C7 19.9502 9.8142 12.9788 15.4434 7.78711C21.0725 2.59544 27.5917 4.45568e-07 35 0ZM35 21C33.075 21 31.4275 21.6858 30.0566 23.0566C28.6858 24.4275 28 26.075 28 28C28 29.925 28.6858 31.5725 30.0566 32.9434C31.4275 34.3142 33.075 35 35 35C36.925 35 38.5725 34.3142 39.9434 32.9434C41.3142 31.5725 42 29.925 42 28C42 26.075 41.3142 24.4275 39.9434 23.0566C38.5725 21.6858 36.925 21 35 21Z" fill="#181818"/>
<mask id="path-2-inside-1_4478_28755" fill="white">
<path d="M62.1523 35C61.0982 39.0275 59.0643 43.2717 56.0469 47.7314C51.4094 54.5856 44.3946 62.0084 35.0029 70C25.6113 62.0084 18.5965 54.5856 13.959 47.7314C10.9416 43.2718 8.90764 39.0275 7.85352 35H62.1523Z"/>
</mask>
<path d="M62.1523 35C61.0982 39.0275 59.0643 43.2717 56.0469 47.7314C51.4094 54.5856 44.3946 62.0084 35.0029 70C25.6113 62.0084 18.5965 54.5856 13.959 47.7314C10.9416 43.2718 8.90764 39.0275 7.85352 35H62.1523Z" fill="white"/>
<path d="M62.1523 35L63.6035 35.3798L64.0955 33.5H62.1523V35ZM56.0469 47.7314L57.2892 48.572L57.2892 48.572L56.0469 47.7314ZM35.0029 70L34.0308 71.1424L35.0029 71.9696L35.975 71.1424L35.0029 70ZM13.959 47.7314L12.7166 48.572L12.7166 48.572L13.959 47.7314ZM7.85352 35V33.5H5.91039L6.4024 35.3798L7.85352 35ZM62.1523 35L60.7012 34.6202C59.7005 38.4436 57.753 42.5331 54.8045 46.8909L56.0469 47.7314L57.2892 48.572C60.3756 44.0104 62.4959 39.6115 63.6035 35.3798L62.1523 35ZM56.0469 47.7314L54.8045 46.8909C50.2704 53.5922 43.3644 60.9153 34.0308 68.8576L35.0029 70L35.975 71.1424C45.4247 63.1014 52.5484 55.579 57.2892 48.572L56.0469 47.7314ZM35.0029 70L35.975 68.8576C26.6414 60.9154 19.7355 53.5922 15.2013 46.8909L13.959 47.7314L12.7166 48.572C17.4575 55.5789 24.5812 63.1014 34.0308 71.1424L35.0029 70ZM13.959 47.7314L15.2013 46.8909C12.2529 42.5331 10.3053 38.4436 9.30464 34.6202L7.85352 35L6.4024 35.3798C7.50995 39.6115 9.63027 44.0104 12.7166 48.572L13.959 47.7314ZM7.85352 35V36.5H62.1523V35V33.5H7.85352V35Z" fill="#181818" mask="url(#path-2-inside-1_4478_28755)"/>
</svg>
