<svg width="19" height="18" viewBox="0 0 19 18" fill="none" xmlns="http://www.w3.org/2000/svg">
<g id="Union">
<path d="M10.03 9.33065C9.68232 9.38658 9.37947 9.49372 9.15818 9.64783L7.15149 11.0453L6.19723 9.67512L8.20392 8.27761C8.76913 7.88397 9.58333 7.62725 10.5142 7.61991C11.1332 6.68115 12.2617 6.13942 13.4424 6.33452C15.3735 6.6531 18.7585 10.1885 18.7585 10.1885C18.7585 10.1885 14.0848 12.3934 12.486 12.1283C11.0792 11.8963 10.0748 10.7024 10.03 9.33065Z" fill="#BED200"/>
<path d="M10.4634 4.52545C10.3445 5.63586 9.3485 6.43939 8.23809 6.32045C7.12953 6.20124 6.32648 5.20592 6.44474 4.09599C6.58796 2.75603 8.88379 0.292361 8.88379 0.292361C8.88379 0.292361 10.5822 3.41621 10.4634 4.52545Z" fill="#BED200"/>
<path d="M0.590747 7.47579L2.87269 4.90962L10.4879 15.8442L7.2707 17.0675L0.590747 7.47579Z" fill="#BED200"/>
</g>
</svg>
